<svg width="30" height="30" viewBox="0 0 30 30" fill="none" xmlns="http://www.w3.org/2000/svg">
<circle cx="15.1562" cy="15.1697" r="14" fill="#404040" stroke="white"/>
<path d="M15.1562 12.0759C13.1562 12.0759 11.5625 13.7009 11.5625 15.6697C11.5625 17.6697 13.1562 19.2634 15.1562 19.2634C17.125 19.2634 18.75 17.6697 18.75 15.6697C18.75 13.7009 17.125 12.0759 15.1562 12.0759ZM15.1562 18.0134C13.875 18.0134 12.8125 16.9822 12.8125 15.6697C12.8125 14.3884 13.8438 13.3572 15.1562 13.3572C16.4375 13.3572 17.4688 14.3884 17.4688 15.6697C17.4688 16.9822 16.4375 18.0134 15.1562 18.0134ZM19.7188 11.9509C19.7188 11.4822 19.3438 11.1072 18.875 11.1072C18.4062 11.1072 18.0312 11.4822 18.0312 11.9509C18.0312 12.4197 18.4062 12.7947 18.875 12.7947C19.3438 12.7947 19.7188 12.4197 19.7188 11.9509ZM22.0938 12.7947C22.0312 11.6697 21.7812 10.6697 20.9688 9.85718C20.1562 9.04468 19.1562 8.79468 18.0312 8.73218C16.875 8.66968 13.4062 8.66968 12.25 8.73218C11.125 8.79468 10.1562 9.04468 9.3125 9.85718C8.5 10.6697 8.25 11.6697 8.1875 12.7947C8.125 13.9509 8.125 17.4197 8.1875 18.5759C8.25 19.7009 8.5 20.6697 9.3125 21.5134C10.1562 22.3259 11.125 22.5759 12.25 22.6384C13.4062 22.7009 16.875 22.7009 18.0312 22.6384C19.1562 22.5759 20.1562 22.3259 20.9688 21.5134C21.7812 20.6697 22.0312 19.7009 22.0938 18.5759C22.1562 17.4197 22.1562 13.9509 22.0938 12.7947ZM20.5938 19.7947C20.375 20.4197 19.875 20.8884 19.2812 21.1384C18.3438 21.5134 16.1562 21.4197 15.1562 21.4197C14.125 21.4197 11.9375 21.5134 11.0312 21.1384C10.4062 20.8884 9.9375 20.4197 9.6875 19.7947C9.3125 18.8884 9.40625 16.7009 9.40625 15.6697C9.40625 14.6697 9.3125 12.4822 9.6875 11.5447C9.9375 10.9509 10.4062 10.4822 11.0312 10.2322C11.9375 9.85718 14.125 9.95093 15.1562 9.95093C16.1562 9.95093 18.3438 9.85718 19.2812 10.2322C19.875 10.4509 20.3438 10.9509 20.5938 11.5447C20.9688 12.4822 20.875 14.6697 20.875 15.6697C20.875 16.7009 20.9688 18.8884 20.5938 19.7947Z" fill="white"/>
</svg>
