<svg width="30" height="30" viewBox="0 0 30 30" fill="none" xmlns="http://www.w3.org/2000/svg">
<circle cx="15.1562" cy="15.1697" r="14" fill="#404040" stroke="white"/>
<path d="M13.9688 14.0134V17.3884L16.9688 15.7009L13.9688 14.0134ZM22.1562 10.1697C22.1562 9.35718 21.4688 8.66968 20.6562 8.66968H9.65625C8.8125 8.66968 8.15625 9.35718 8.15625 10.1697V21.1697C8.15625 22.0134 8.8125 22.6697 9.65625 22.6697H20.6562C21.4688 22.6697 22.1562 22.0134 22.1562 21.1697V10.1697ZM20.8438 15.7009C20.8438 15.7009 20.8438 17.5447 20.5938 18.4509C20.4688 18.9509 20.0625 19.3259 19.5938 19.4509C18.6875 19.6697 15.1562 19.6697 15.1562 19.6697C15.1562 19.6697 11.5938 19.6697 10.6875 19.4509C10.2188 19.3259 9.8125 18.9509 9.6875 18.4509C9.46875 17.5447 9.46875 15.7009 9.46875 15.7009C9.46875 15.7009 9.46875 13.8259 9.6875 12.9509C9.8125 12.4509 10.2188 12.0447 10.6875 11.9197C11.5938 11.6697 15.1562 11.6697 15.1562 11.6697C15.1562 11.6697 18.6875 11.6697 19.5938 11.9197C20.0625 12.0447 20.4688 12.4509 20.5938 12.9509C20.8438 13.8259 20.8438 15.7009 20.8438 15.7009Z" fill="white"/>
</svg>
